<svg xmlns="http://www.w3.org/2000/svg" xmlns:xlink="http://www.w3.org/1999/xlink" viewBox="0,0,256,256" width="160px" height="160px" fill-rule="nonzero"><g fill="none" fill-rule="nonzero" stroke="none" stroke-width="none" stroke-linecap="butt" stroke-linejoin="miter" stroke-miterlimit="10" stroke-dasharray="" stroke-dashoffset="0" font-family="none" font-weight="none" font-size="none" text-anchor="none" style="mix-blend-mode: normal"><g transform="scale(6.4,6.4)"><path d="M20,38.5c-10.2,0 -18.5,-8.3 -18.5,-18.5c0,-10.2 8.3,-18.5 18.5,-18.5c10.2,0 18.5,8.3 18.5,18.5c0,10.2 -8.3,18.5 -18.5,18.5z" fill="#ff0000" stroke="none" stroke-width="1"></path><path d="M20,2c9.9,0 18,8.1 18,18c0,9.9 -8.1,18 -18,18c-9.9,0 -18,-8.1 -18,-18c0,-9.9 8.1,-18 18,-18M20,1c-10.5,0 -19,8.5 -19,19c0,10.5 8.5,19 19,19c10.5,0 19,-8.5 19,-19c0,-10.5 -8.5,-19 -19,-19z" fill="#ff0000" stroke="none" stroke-width="1"></path><path d="M11.2,20.1l5.8,5.8l13.2,-13.2" fill="none" stroke="#ffffff" stroke-width="3"></path></g></g></svg>